<svg width="563" height="103" viewBox="0 0 563 103" fill="none" xmlns="http://www.w3.org/2000/svg">
<path d="M41.4844 19.875C40.1562 15.1094 36.3281 12.375 30.7812 12.375C22.5 12.375 17.1875 18.625 17.1875 29.6406C17.1875 40.7344 22.1875 47.0625 30.7812 47.0625C38.3203 47.0625 42.5781 43.1172 42.7344 36.9844H31.3281V27.2188H55.5469V34.6406C55.5469 49.7188 45.1562 58.7812 30.7031 58.7812C14.5312 58.7812 3.59375 47.6875 3.59375 29.7969C3.59375 11.2812 15.4688 0.65625 30.4688 0.65625C43.5156 0.65625 53.5938 8.625 55 19.875H41.4844ZM90.5469 24.6406V34.7969H64.4531V24.6406H90.5469ZM120.625 58H99.9219V1.4375H120.625C137.891 1.4375 148.516 12.0625 148.516 29.7188C148.516 47.375 137.891 58 120.625 58ZM113.203 46.5938H120.156C129.844 46.5938 135.156 41.9844 135.156 29.7188C135.156 17.4531 129.844 12.7656 120 12.7656H113.203V46.5938ZM156.406 58V1.4375H195.547V12.2969H169.688V24.25H193.516V35.1094H169.688V47.1406H195.625V58H156.406ZM215.781 58H201.406L220.625 1.4375H238.281L257.422 58H243.125L239.297 45.8906H219.609L215.781 58ZM222.812 35.7344H236.094L229.688 15.4219H229.219L222.812 35.7344ZM263.438 58V1.4375H276.719V47.1406H300.469V58H263.438Z" fill="#45AF76"/>
<path d="M17.5566 81.7031C17.0586 79.916 15.623 78.8906 13.543 78.8906C10.4375 78.8906 8.44531 81.2344 8.44531 85.3652C8.44531 89.5254 10.3203 91.8984 13.543 91.8984C16.3701 91.8984 17.9668 90.4189 18.0254 88.1191H13.748V84.457H22.8301V87.2402C22.8301 92.8945 18.9336 96.293 13.5137 96.293C7.44922 96.293 3.34766 92.1328 3.34766 85.4238C3.34766 78.4805 7.80078 74.4961 13.4258 74.4961C18.3184 74.4961 22.0977 77.4844 22.625 81.7031H17.5566ZM28.6895 101.977C27.752 101.977 26.873 101.947 26.2285 101.889V98.1387C26.873 98.1973 27.5762 98.1973 28.1621 98.1973C28.9824 98.1973 29.5977 98.1094 30.0371 97.0547L30.2129 96.5566L24.5586 80.0918H29.7148L32.7324 91.5176H32.9082L35.9258 80.0918H41.1406L35.1055 97.5527C34.2266 100.16 32.4102 101.977 28.6895 101.977ZM49.9297 96.293C44.9492 96.293 41.9023 93.1875 41.9023 88.1191C41.9023 83.1973 44.9785 79.8867 49.7539 79.8867C54.207 79.8867 57.4297 82.7285 57.4297 88.002V89.2617H46.7656V89.3496C46.7656 91.4004 48.0254 92.7188 50.0176 92.7188C51.3652 92.7188 52.3613 92.1328 52.7715 91.1953H57.3711C56.7852 94.3008 54.0605 96.293 49.9297 96.293ZM46.7656 86.3613H52.8301C52.8008 84.6621 51.5703 83.4609 49.8711 83.4609C48.1133 83.4609 46.8389 84.7061 46.7656 86.3613ZM67.3613 96.293C62.3809 96.293 59.3633 92.9824 59.3633 88.0898C59.3633 83.1973 62.3809 79.8867 67.3613 79.8867C72.3418 79.8867 75.3594 83.1973 75.3594 88.0898C75.3594 92.9824 72.3418 96.293 67.3613 96.293ZM67.3906 92.5723C69.2656 92.5723 70.3203 90.7266 70.3203 88.0605C70.3203 85.3945 69.2656 83.5488 67.3906 83.5488C65.457 83.5488 64.4023 85.3945 64.4023 88.0605C64.4023 90.7266 65.457 92.5723 67.3906 92.5723ZM82.8594 86.8887V96H77.9082V80.0918H82.5957V82.9922H82.7715C83.5039 81.0586 85.2617 79.8867 87.6055 79.8867C90.9453 79.8867 93.1426 82.2598 93.1133 85.8633V96H88.1914V86.8008C88.1914 85.0137 87.2246 83.9297 85.584 83.9297C83.9434 83.9297 82.8594 85.043 82.8594 86.8887ZM103.602 102.299C99.0312 102.299 96.3066 100.219 96.0723 97.2012H100.877C101.082 98.3438 102.166 98.8418 103.719 98.8418C105.506 98.8418 106.736 98.1094 106.736 96.0293V93.2168H106.561C105.945 94.6523 104.422 95.7949 102.049 95.7949C98.5332 95.7949 95.6621 93.3633 95.6621 88.002C95.6621 82.4355 98.6797 79.8867 102.02 79.8867C104.568 79.8867 105.945 81.3809 106.531 82.8164H106.678V80.0918H111.6V96.0879C111.6 100.131 108.348 102.299 103.602 102.299ZM103.719 92.1621C105.623 92.1621 106.736 90.6094 106.736 88.002C106.736 85.3945 105.652 83.7539 103.719 83.7539C101.785 83.7539 100.73 85.4531 100.73 88.002C100.73 90.6094 101.814 92.1621 103.719 92.1621ZM123.934 85.0137C123.787 83.959 122.85 83.2852 121.531 83.2852C120.301 83.2852 119.334 83.8418 119.363 84.6621C119.334 85.2773 119.803 85.7754 121.18 86.0391L124.197 86.625C127.361 87.2402 128.885 88.6172 128.914 90.9316C128.885 94.1836 125.896 96.293 121.59 96.293C117.049 96.293 114.383 94.2715 114.061 91.1074H118.982C119.158 92.25 120.154 92.8652 121.619 92.8652C122.967 92.8652 123.875 92.3379 123.904 91.459C123.875 90.7559 123.26 90.3164 121.883 90.0234L119.158 89.5254C116.023 88.9395 114.441 87.3574 114.471 84.9258C114.441 81.7617 117.137 79.8867 121.443 79.8867C125.721 79.8867 128.328 81.8496 128.533 85.0137H123.934ZM130.613 91.5762C130.613 88.0605 133.338 86.8008 136.502 86.5957C137.645 86.5225 139.637 86.4492 140.311 86.4199V85.1309C140.311 84.0176 139.49 83.4023 138.143 83.4023C136.824 83.4023 136.004 83.959 135.799 85.0137H131.199C131.404 82.2012 133.807 79.8867 138.26 79.8867C142.186 79.8867 145.262 81.7617 145.262 85.1895V96H140.604V93.7734H140.486C139.607 95.3848 138.084 96.293 135.857 96.293C132.811 96.293 130.613 94.7402 130.613 91.5762ZM135.301 91.3711C135.301 92.4551 136.15 93.0117 137.352 93.0117C139.021 93.0117 140.369 91.9277 140.34 90.3457V89.3203C139.739 89.3496 138.055 89.4229 137.322 89.4961C136.092 89.6426 135.301 90.3164 135.301 91.3711ZM153.23 86.8887V96H148.279V80.0918H152.967V82.9922H153.143C153.875 81.0586 155.633 79.8867 157.977 79.8867C161.316 79.8867 163.514 82.2598 163.484 85.8633V96H158.562V86.8008C158.562 85.0137 157.596 83.9297 155.955 83.9297C154.314 83.9297 153.23 85.043 153.23 86.8887ZM173.973 102.299C169.402 102.299 166.678 100.219 166.443 97.2012H171.248C171.453 98.3438 172.537 98.8418 174.09 98.8418C175.877 98.8418 177.107 98.1094 177.107 96.0293V93.2168H176.932C176.316 94.6523 174.793 95.7949 172.42 95.7949C168.904 95.7949 166.033 93.3633 166.033 88.002C166.033 82.4355 169.051 79.8867 172.391 79.8867C174.939 79.8867 176.316 81.3809 176.902 82.8164H177.049V80.0918H181.971V96.0879C181.971 100.131 178.719 102.299 173.973 102.299ZM174.09 92.1621C175.994 92.1621 177.107 90.6094 177.107 88.002C177.107 85.3945 176.023 83.7539 174.09 83.7539C172.156 83.7539 171.102 85.4531 171.102 88.002C171.102 90.6094 172.186 92.1621 174.09 92.1621ZM199.637 96H191.873V74.7891H199.637C206.111 74.7891 210.096 78.7734 210.096 85.3945C210.096 92.0156 206.111 96 199.637 96ZM196.854 91.7227H199.461C203.094 91.7227 205.086 89.9941 205.086 85.3945C205.086 80.7949 203.094 79.0371 199.402 79.0371H196.854V91.7227ZM213.025 96V80.0918H217.977V96H213.025ZM215.516 78.1875C214.109 78.1875 212.967 77.1328 212.967 75.8145C212.967 74.4961 214.109 73.4414 215.516 73.4414C216.922 73.4414 218.094 74.4961 218.094 75.8145C218.094 77.1328 216.922 78.1875 215.516 78.1875ZM228.523 102.299C223.953 102.299 221.229 100.219 220.994 97.2012H225.799C226.004 98.3438 227.088 98.8418 228.641 98.8418C230.428 98.8418 231.658 98.1094 231.658 96.0293V93.2168H231.482C230.867 94.6523 229.344 95.7949 226.971 95.7949C223.455 95.7949 220.584 93.3633 220.584 88.002C220.584 82.4355 223.602 79.8867 226.941 79.8867C229.49 79.8867 230.867 81.3809 231.453 82.8164H231.6V80.0918H236.521V96.0879C236.521 100.131 233.27 102.299 228.523 102.299ZM228.641 92.1621C230.545 92.1621 231.658 90.6094 231.658 88.002C231.658 85.3945 230.574 83.7539 228.641 83.7539C226.707 83.7539 225.652 85.4531 225.652 88.002C225.652 90.6094 226.736 92.1621 228.641 92.1621ZM239.686 96V80.0918H244.637V96H239.686ZM242.176 78.1875C240.77 78.1875 239.627 77.1328 239.627 75.8145C239.627 74.4961 240.77 73.4414 242.176 73.4414C243.582 73.4414 244.754 74.4961 244.754 75.8145C244.754 77.1328 243.582 78.1875 242.176 78.1875ZM256.678 80.0918V83.7246H253.777V91.0195C253.777 92.0156 254.275 92.3086 255.125 92.3379C255.535 92.3672 256.326 92.3086 256.883 92.2793V96.0586C256.414 96.1172 255.594 96.2344 254.422 96.2344C250.936 96.2344 248.826 94.7988 248.855 91.5762V83.7246H246.717V80.0918H248.855V76.2832H253.777V80.0918H256.678ZM258.494 91.5762C258.494 88.0605 261.219 86.8008 264.383 86.5957C265.525 86.5225 267.518 86.4492 268.191 86.4199V85.1309C268.191 84.0176 267.371 83.4023 266.023 83.4023C264.705 83.4023 263.885 83.959 263.68 85.0137H259.08C259.285 82.2012 261.688 79.8867 266.141 79.8867C270.066 79.8867 273.143 81.7617 273.143 85.1895V96H268.484V93.7734H268.367C267.488 95.3848 265.965 96.293 263.738 96.293C260.691 96.293 258.494 94.7402 258.494 91.5762ZM263.182 91.3711C263.182 92.4551 264.031 93.0117 265.232 93.0117C266.902 93.0117 268.25 91.9277 268.221 90.3457V89.3203C267.62 89.3496 265.936 89.4229 265.203 89.4961C263.973 89.6426 263.182 90.3164 263.182 91.3711ZM281.111 74.7891V96H276.16V74.7891H281.111ZM291.014 96V74.7891H305.691V78.8613H295.994V83.3438H304.93V87.416H295.994V91.9277H305.721V96H291.014ZM314.686 96.2344C311.141 96.2344 308.299 93.4512 308.299 88.0605C308.299 82.4648 311.316 79.8867 314.656 79.8867C317.205 79.8867 318.553 81.3809 319.168 82.8164H319.285V74.7891H324.207V96H319.314V93.4219H319.168C318.523 94.8574 317.117 96.2344 314.686 96.2344ZM316.355 92.3672C318.26 92.3672 319.373 90.668 319.373 88.0312C319.373 85.3945 318.289 83.7539 316.355 83.7539C314.422 83.7539 313.367 85.4531 313.367 88.0312C313.367 90.668 314.451 92.3672 316.355 92.3672ZM337.654 89.1445V80.0918H342.576V96H337.889V93.0703H337.713C337.01 94.9746 335.252 96.2051 332.85 96.2051C329.598 96.2051 327.4 93.8613 327.4 90.2285V80.0918H332.352V89.291C332.352 91.0195 333.318 92.1035 334.9 92.1035C336.424 92.1035 337.654 91.0488 337.654 89.1445ZM353.152 96.293C348.143 96.293 345.154 92.9531 345.154 88.0898C345.154 83.2266 348.172 79.8867 353.152 79.8867C357.518 79.8867 360.359 82.4062 360.477 86.2734H355.877C355.643 84.6621 354.705 83.6367 353.211 83.6367C351.395 83.6367 350.193 85.1895 350.193 88.0312C350.193 90.9023 351.365 92.4551 353.211 92.4551C354.617 92.4551 355.672 91.5469 355.877 89.8477H360.477C360.33 93.7148 357.576 96.293 353.152 96.293ZM362.293 91.5762C362.293 88.0605 365.018 86.8008 368.182 86.5957C369.324 86.5225 371.316 86.4492 371.99 86.4199V85.1309C371.99 84.0176 371.17 83.4023 369.822 83.4023C368.504 83.4023 367.684 83.959 367.479 85.0137H362.879C363.084 82.2012 365.486 79.8867 369.939 79.8867C373.865 79.8867 376.941 81.7617 376.941 85.1895V96H372.283V93.7734H372.166C371.287 95.3848 369.764 96.293 367.537 96.293C364.49 96.293 362.293 94.7402 362.293 91.5762ZM366.98 91.3711C366.98 92.4551 367.83 93.0117 369.031 93.0117C370.701 93.0117 372.049 91.9277 372.02 90.3457V89.3203C371.419 89.3496 369.734 89.4229 369.002 89.4961C367.771 89.6426 366.98 90.3164 366.98 91.3711ZM388.836 80.0918V83.7246H385.936V91.0195C385.936 92.0156 386.434 92.3086 387.283 92.3379C387.693 92.3672 388.484 92.3086 389.041 92.2793V96.0586C388.572 96.1172 387.752 96.2344 386.58 96.2344C383.094 96.2344 380.984 94.7988 381.014 91.5762V83.7246H378.875V80.0918H381.014V76.2832H385.936V80.0918H388.836ZM398.592 96.293C393.611 96.293 390.594 92.9824 390.594 88.0898C390.594 83.1973 393.611 79.8867 398.592 79.8867C403.572 79.8867 406.59 83.1973 406.59 88.0898C406.59 92.9824 403.572 96.293 398.592 96.293ZM398.621 92.5723C400.496 92.5723 401.551 90.7266 401.551 88.0605C401.551 85.3945 400.496 83.5488 398.621 83.5488C396.688 83.5488 395.633 85.3945 395.633 88.0605C395.633 90.7266 396.688 92.5723 398.621 92.5723ZM409.139 96V80.0918H413.943V82.9629H414.09C414.676 80.8828 416.082 79.8574 417.84 79.8574C418.309 79.8574 418.836 79.9453 419.246 80.0332V84.3398C418.777 84.1934 417.898 84.1055 417.283 84.1055C415.438 84.1055 414.09 85.3945 414.09 87.2988V96H409.139ZM432.371 96H426.98L434.188 74.7891H440.809L447.986 96H442.625L441.189 91.459H433.807L432.371 96ZM435.008 87.6504H439.988L437.586 80.0332H437.41L435.008 87.6504ZM455.164 74.7891V96H450.213V74.7891H455.164ZM463.279 74.7891V96H458.328V74.7891H463.279ZM466.443 96V80.0918H471.395V96H466.443ZM468.934 78.1875C467.527 78.1875 466.385 77.1328 466.385 75.8145C466.385 74.4961 467.527 73.4414 468.934 73.4414C470.34 73.4414 471.512 74.4961 471.512 75.8145C471.512 77.1328 470.34 78.1875 468.934 78.1875ZM473.826 91.5762C473.826 88.0605 476.551 86.8008 479.715 86.5957C480.857 86.5225 482.85 86.4492 483.523 86.4199V85.1309C483.523 84.0176 482.703 83.4023 481.355 83.4023C480.037 83.4023 479.217 83.959 479.012 85.0137H474.412C474.617 82.2012 477.02 79.8867 481.473 79.8867C485.398 79.8867 488.475 81.7617 488.475 85.1895V96H483.816V93.7734H483.699C482.82 95.3848 481.297 96.293 479.07 96.293C476.023 96.293 473.826 94.7402 473.826 91.5762ZM478.514 91.3711C478.514 92.4551 479.363 93.0117 480.564 93.0117C482.234 93.0117 483.582 91.9277 483.553 90.3457V89.3203C482.952 89.3496 481.268 89.4229 480.535 89.4961C479.305 89.6426 478.514 90.3164 478.514 91.3711ZM496.443 86.8887V96H491.492V80.0918H496.18V82.9922H496.355C497.088 81.0586 498.846 79.8867 501.189 79.8867C504.529 79.8867 506.727 82.2598 506.697 85.8633V96H501.775V86.8008C501.775 85.0137 500.809 83.9297 499.168 83.9297C497.527 83.9297 496.443 85.043 496.443 86.8887ZM517.186 96.293C512.176 96.293 509.188 92.9531 509.188 88.0898C509.188 83.2266 512.205 79.8867 517.186 79.8867C521.551 79.8867 524.393 82.4062 524.51 86.2734H519.91C519.676 84.6621 518.738 83.6367 517.244 83.6367C515.428 83.6367 514.227 85.1895 514.227 88.0312C514.227 90.9023 515.398 92.4551 517.244 92.4551C518.65 92.4551 519.705 91.5469 519.91 89.8477H524.51C524.363 93.7148 521.609 96.293 517.186 96.293ZM534.471 96.293C529.49 96.293 526.443 93.1875 526.443 88.1191C526.443 83.1973 529.52 79.8867 534.295 79.8867C538.748 79.8867 541.971 82.7285 541.971 88.002V89.2617H531.307V89.3496C531.307 91.4004 532.566 92.7188 534.559 92.7188C535.906 92.7188 536.902 92.1328 537.312 91.1953H541.912C541.326 94.3008 538.602 96.293 534.471 96.293ZM531.307 86.3613H537.371C537.342 84.6621 536.111 83.4609 534.412 83.4609C532.654 83.4609 531.38 84.7061 531.307 86.3613Z" fill="#2B724C"/>
</svg>
