<svg xmlns="http://www.w3.org/2000/svg" xmlns:xlink="http://www.w3.org/1999/xlink" xmlns:inkscape="http://www.inkscape.org/namespaces/inkscape" version="1.1" width="1190.55" height="841.89" viewBox="0 0 1190.55 841.89">
<defs>
<clipPath id="clip_0">
<path transform="matrix(1,0,0,-1,0,841.89)" d="M0 841.89H1190.551V0H0Z"/>
</clipPath>
</defs>
<g inkscape:groupmode="layer" inkscape:label="New Layer">
<g clip-path="url(#clip_0)">
<path transform="matrix(1,0,0,-1,487.3801,307.71113)" d="M0 0C-.14-.747-3.733-18.012-7.979-38.404-12.226-58.795-16.052-77.087-16.425-79-16.845-80.913-17.265-82.873-17.405-83.34-17.592-84.133-17.032-84.18-7.466-84.04L2.706-83.9 5.6-69.901C7.139-62.202 8.586-55.482 8.773-54.969 9.099-54.082 16.285-47.27 17.265-46.943 17.545-46.85 21.605-55.202 26.318-65.468L34.904-84.133H46.29C52.542-84.133 57.582-83.993 57.489-83.76 57.395-83.573 52.029-72.887 45.59-60.008L33.831-36.584 53.429-17.779 73.027 1.027 61.268 1.167 49.509 1.26 31.544-16.565C21.652-26.365 13.486-34.204 13.392-33.971 13.299-33.691 14.839-25.758 16.752-16.285 18.665-6.859 20.252 .98 20.252 1.073 20.252 1.167 15.772 1.26 10.266 1.26H.28Z" fill="#0081a3" fill-rule="evenodd"/>
<path transform="matrix(1,0,0,-1,612.6232,306.82453)" d="M0 0C0-.187-3.873-18.805-8.633-41.39-13.392-63.975-17.405-83.013-17.545-83.713L-17.825-85.02H13.952C31.404-85.02 45.776-84.833 45.916-84.6 46.056-84.413 46.896-80.82 47.783-76.667L49.323-69.154H27.531 5.693L7.699-59.542C8.773-54.269 9.753-49.929 9.846-49.836 10.033-49.649 36.164-49.089 43.49-49.089H48.016L48.343-47.316C48.483-46.383 49.183-42.93 49.883-39.617L51.189-33.691H32.057 12.972L13.206-32.617C13.346-32.057 14.232-27.858 15.212-23.331L16.939-15.025 38.404-14.932 59.868-14.792 61.408-7.559C62.248-3.593 62.948-.187 62.948 .047 62.995 .233 48.809 .373 31.497 .373 14.185 .373 0 .233 0 0" fill="#0081a3" fill-rule="evenodd"/>
<path transform="matrix(1,0,0,-1,714.9548,342.475)" d="M0 0C4.34-2.426 6.299-7.139 5.786-14.139 5.226-21.605 2.38-28.184-2.286-32.524-5.786-35.79-8.726-37.004-13.206-36.957-18.105-36.864-21.652-34.53-23.051-30.378-23.938-27.811-23.798-20.858-22.818-16.705-20.485-7.326-15.632-.84-9.566 .887-6.626 1.68-2.38 1.307 0 0M16.005 35.23C15.865 34.764 14.466 28.091 12.926 20.392 9.379 2.986 9.753 4.2 8.726 6.486 5.88 12.879-2.986 16.192-12.739 14.466-23.518 12.552-31.964 5.646-37.47-5.693-40.55-12.039-41.67-16.752-41.997-24.871-42.183-29.911-42.043-32.104-41.483-34.577-39.01-45.123-31.451-50.769-19.832-50.769-12.226-50.769-6.673-48.436-1.68-43.116 .047-41.297 1.307-40.177 1.12-40.597 .98-41.017 .607-42.697 .327-44.33 .047-45.963-.233-47.689-.373-48.249-.56-49.183-.373-49.183 7.746-49.323 12.366-49.369 16.192-49.229 16.332-49.043 16.472-48.809 18.105-41.483 19.925-32.757 30.424 17.405 34.017 34.484 34.204 35.23 34.437 35.977 33.784 36.024 25.338 36.024 17.079 36.024 16.239 35.93 16.005 35.23" fill="#0081a3" fill-rule="evenodd"/>
<path transform="matrix(1,0,0,-1,766.7505,329.22273)" d="M0 0C-5.226-.047-9.473-.233-9.473-.373-9.473-.56-11.386-9.706-13.719-20.812-16.332-33.224-18.059-42.51-18.199-45.123-18.852-55.949-13.999-62.295-3.686-64.068 5.133-65.561 15.212-62.388 20.625-56.415 21.745-55.202 22.725-54.222 22.865-54.222 22.958-54.222 22.678-55.855 22.211-57.815 21.745-59.822 21.325-61.735 21.325-62.015 21.325-62.482 23.238-62.622 29.444-62.622 36.817-62.622 37.61-62.528 37.844-61.782 37.984-61.362 38.59-58.469 39.243-55.389 41.39-45.076 50.769-1.26 50.956-.56 51.142 .047 49.929 .14 42.09 .14 37.097 .14 32.991 .093 32.991 .047 32.991 0 31.124-8.446 28.838-18.758 24.218-39.43 23.425-41.763 19.692-45.45 16.845-48.249 13.579-49.556 9.286-49.556 3.313-49.556 1.073-47.269 1.12-41.203 1.167-37.657 2.006-33.411 7.373-10.219 8.679-4.62 9.659 0 9.566 .047 9.519 .093 5.18 .093 0 0" fill="#0081a3" fill-rule="evenodd"/>
<path transform="matrix(1,0,0,-1,552.6614,349.00773)" d="M0 0C-.327-1.167-3.033-14.419-3.033-15.119-3.033-15.679-.513-15.772 15.165-15.772 28.978-15.725 33.457-15.585 33.597-15.165 33.737-14.839 34.53-11.199 35.417-6.999L36.957 .56H18.572C4.293 .56 .14 .42 0 0" fill="#0081a3" fill-rule="evenodd"/>
<path transform="matrix(1,0,0,-1,764.3292,486.59233)" d="M0 0C-13.999-11.712-31.917-22.445-51.282-30.611-76.9-41.483-103.545-46.43-132.242-45.636-164.16-44.796-191.271-38.73-230.468-23.658-259.865-12.366-271.811-8.959-291.269-6.346-299.855-5.18-318.427-4.946-327.526-5.926-344.558-7.653-358.511-11.246-372.323-17.359-381.469-21.372-401.121-34.313-401.121-36.179-387.144-26.672-382.845-26.178-382.332-25.944-380.185-25.151-376.242-24.311-373.023-23.658-357.391-20.578-337.279-20.298-319.361-22.958-299.482-25.851-283.897-30.937-256.786-43.256-226.968-56.835-207.09-63.415-184.178-67.288-169.526-69.761-163.04-70.274-146.941-70.274-131.123-70.274-123.983-69.621-110.544-67.008-89.499-62.855-67.894-54.689-47.923-43.21-27.298-31.404-3.31-7.352 9.709 7.907 9.709 7.907 5.786 4.526 5.646 4.526 5.506 4.526 2.986 2.52 0 0" fill="#00c0f3" fill-rule="evenodd"/>
<path transform="matrix(1,0,0,-1,470.2751,408.5502)" d="M0 0C.98-15.632 4.573-76.247 4.573-77.274V-78.534H15.679 26.831L41.343-49.136C49.369-32.991 55.902-19.552 55.902-19.272 55.902-19.038 56.089-18.805 56.275-18.805 56.509-18.805 56.835-23.705 57.022-29.631 57.209-35.604 57.629-47.969 58.002-57.069 58.375-66.168 58.702-74.754 58.702-76.06V-78.534H70.508 82.267L86.466-70.228C114.837-14.232 123.563 3.126 123.983 4.2L124.496 5.46H114.277 104.058L103.358 3.733C102.985 2.753 101.305-.887 99.625-4.34 97.945-7.793 93.186-17.779 89.033-26.505 84.833-35.23 79.933-45.496 78.067-49.369L74.707-56.369 74.381-50.536C74.241-47.316 73.867-36.49 73.634-26.505 73.401-16.472 73.027-5.226 72.887-1.4L72.607 5.46H61.875 51.189L40.737-15.865C34.95-27.624 28.324-41.25 25.945-46.196 23.565-51.096 21.465-55.155 21.325-55.155 21.185-55.202 20.812-45.263 20.532-33.131 20.205-21.045 19.832-7.373 19.645-2.8L19.365 5.46H9.519-.327Z" fill="#00c0f3" fill-rule="evenodd"/>
<path transform="matrix(1,0,0,-1,627.249,458.8994)" d="M0 0C-.187-.42-.513-1.727-.84-2.94-1.587-6.066-3.266-9.519-5.18-11.712-9.379-16.612-19.692-18.945-24.451-16.052-26.178-14.979-26.878-13.532-26.878-11.012-26.878-5.46-20.532-1.493-9.613-.233 .047 .887 .327 .887 0 0M-14.279 35.09C-24.125 32.991-31.031 27.951-34.81 20.018-35.604 18.478-36.35 16.519-36.49 15.725L-36.77 14.279H-28.371-19.972L-18.758 16.799C-16.705 21.045-12.972 22.865-6.346 22.911-3.033 22.911-2.007 22.725-.047 21.745 2.94 20.252 3.64 18.478 2.94 14.372 2.66 12.879 2.286 11.432 2.146 11.152 1.96 10.872-1.82 10.406-6.766 10.126-22.771 9.053-28.838 7.653-35.604 3.406-46.056-3.126-49.276-17.499-41.95-25.011-34.344-32.804-15.119-31.217-5.46-21.978L-3.406-20.018-3.733-22.118C-3.92-23.285-4.2-25.105-4.34-26.178L-4.62-28.184H4.013 12.646L12.879-23.611C13.066-20.065 13.906-16.052 16.659-5.04 21.045 12.319 21.838 16.472 21.512 20.252 20.952 27.251 16.239 32.244 7.839 34.577 4.06 35.65-10.033 35.977-14.279 35.09" fill="#00c0f3" fill-rule="evenodd"/>
<path transform="matrix(1,0,0,-1,763.5045,436.9212)" d="M0 0C1.26-.607 2.753-1.82 3.313-2.66 4.526-4.48 5.46-8.306 5.226-10.732L5.086-12.412-8.819-12.506C-16.425-12.552-22.678-12.412-22.678-12.226-22.678-11.012-19.925-6.393-17.872-4.106-14.419-.373-11.059 1.167-6.066 1.167-3.033 1.167-1.913 .933 0 0M-12.086 12.832C-17.125 11.759-24.545 8.259-28.511 5.04-44.563-8.026-48.903-35.557-36.444-45.776-32.197-49.229-25.665-51.422-18.198-51.889-3.826-52.729 8.026-46.896 15.585-35.184L17.825-31.731 9.426-31.591 1.027-31.497-1.26-33.551C-4.806-36.724-8.073-38.17-12.412-38.404-17.079-38.683-18.805-38.357-21.325-36.63-24.405-34.624-25.618-32.151-25.851-27.438L-26.085-23.565H-2.706 20.625L21.138-22.025C22.585-17.405 22.958-10.452 22.118-4.9 21.418-.7 19.038 4.2 16.239 6.953 10.359 12.832-.933 15.165-12.086 12.832" fill="#00c0f3" fill-rule="evenodd"/>
<path transform="matrix(1,0,0,-1,657.9998,426.04884)" d="M0 0C.14-.607 1.4-8.633 2.846-17.872 7.793-50.069 9.099-58.469 9.379-59.728L9.659-61.035H19.738 29.864L39.617-44.936C44.936-36.07 52.869-22.771 57.255-15.399 61.595-8.026 65.608-1.307 66.121-.467L67.055 1.027H57.535 48.063L36.397-20.298C30.004-32.057 24.685-41.903 24.591-42.23 24.498-42.557 24.265-42.837 24.078-42.837 23.798-42.837 20.765-13.392 19.972-2.566L19.692 1.027H9.706-.233Z" fill="#00c0f3" fill-rule="evenodd"/>
<path transform="matrix(1,0,0,-1,469.595,408.5502)" d="M0 0C.98-15.632 4.573-76.247 4.573-77.274V-78.534H15.679 26.831L41.343-49.136C49.369-32.991 55.902-19.552 55.902-19.272 55.902-19.038 56.089-18.805 56.275-18.805 56.509-18.805 56.835-23.705 57.022-29.631 57.209-35.604 57.629-47.969 58.002-57.069 58.375-66.168 58.702-74.754 58.702-76.06V-78.534H70.508 82.267L86.466-70.228C114.837-14.232 123.563 3.126 123.983 4.2L124.496 5.46H114.277 104.058L103.358 3.733C102.985 2.753 101.305-.887 99.625-4.34 97.945-7.793 93.186-17.779 89.033-26.505 84.833-35.23 79.933-45.496 78.067-49.369L74.707-56.369 74.381-50.536C74.241-47.316 73.867-36.49 73.634-26.505 73.401-16.472 73.027-5.226 72.887-1.4L72.607 5.46H61.875 51.189L40.737-15.865C34.95-27.624 28.324-41.25 25.945-46.196 23.565-51.096 21.465-55.155 21.325-55.155 21.185-55.202 20.812-45.263 20.532-33.131 20.205-21.045 19.832-7.373 19.645-2.8L19.365 5.46H9.519-.327Z" fill="#00c0f3" fill-rule="evenodd"/>
<path transform="matrix(1,0,0,-1,626.5688,458.8994)" d="M0 0C-.187-.42-.513-1.727-.84-2.94-1.587-6.066-3.266-9.519-5.18-11.712-9.379-16.612-19.692-18.945-24.451-16.052-26.178-14.979-26.878-13.532-26.878-11.012-26.878-5.46-20.532-1.493-9.613-.233 .047 .887 .327 .887 0 0M-14.279 35.09C-24.125 32.991-31.031 27.951-34.81 20.018-35.604 18.478-36.35 16.519-36.49 15.725L-36.77 14.279H-28.371-19.972L-18.758 16.799C-16.705 21.045-12.972 22.865-6.346 22.911-3.033 22.911-2.007 22.725-.047 21.745 2.94 20.252 3.64 18.478 2.94 14.372 2.66 12.879 2.286 11.432 2.146 11.152 1.96 10.872-1.82 10.406-6.766 10.126-22.771 9.053-28.838 7.653-35.604 3.406-46.056-3.126-49.276-17.499-41.95-25.011-34.344-32.804-15.119-31.217-5.46-21.978L-3.406-20.018-3.733-22.118C-3.92-23.285-4.2-25.105-4.34-26.178L-4.62-28.184H4.013 12.646L12.879-23.611C13.066-20.065 13.906-16.052 16.659-5.04 21.045 12.319 21.838 16.472 21.512 20.252 20.952 27.251 16.239 32.244 7.839 34.577 4.06 35.65-10.033 35.977-14.279 35.09" fill="#00c0f3" fill-rule="evenodd"/>
<path transform="matrix(1,0,0,-1,762.8243,436.9212)" d="M0 0C1.26-.607 2.753-1.82 3.313-2.66 4.526-4.48 5.46-8.306 5.226-10.732L5.086-12.412-8.819-12.506C-16.425-12.552-22.678-12.412-22.678-12.226-22.678-11.012-19.925-6.393-17.872-4.106-14.419-.373-11.059 1.167-6.066 1.167-3.033 1.167-1.913 .933 0 0M-12.086 12.832C-17.125 11.759-24.545 8.259-28.511 5.04-44.563-8.026-48.903-35.557-36.444-45.776-32.197-49.229-25.665-51.422-18.199-51.889-3.826-52.729 8.026-46.896 15.585-35.184L17.825-31.731 9.426-31.591 1.027-31.497-1.26-33.551C-4.806-36.724-8.073-38.17-12.412-38.404-17.079-38.683-18.805-38.357-21.325-36.63-24.405-34.624-25.618-32.151-25.851-27.438L-26.085-23.565H-2.706 20.625L21.138-22.025C22.585-17.405 22.958-10.452 22.118-4.9 21.418-.7 19.038 4.2 16.239 6.953 10.359 12.832-.933 15.165-12.086 12.832" fill="#00c0f3" fill-rule="evenodd"/>
<path transform="matrix(1,0,0,-1,657.3196,426.04884)" d="M0 0C.14-.607 1.4-8.633 2.846-17.872 7.793-50.069 9.099-58.469 9.379-59.728L9.659-61.035H19.738 29.864L39.617-44.936C44.936-36.07 52.869-22.771 57.255-15.399 61.595-8.026 65.608-1.307 66.121-.467L67.055 1.027H57.535 48.063L36.397-20.298C30.004-32.057 24.685-41.903 24.591-42.23 24.498-42.557 24.265-42.837 24.078-42.837 23.798-42.837 20.765-13.392 19.972-2.566L19.692 1.027H9.706-.233Z" fill="#00c0f3" fill-rule="evenodd"/>
<path transform="matrix(1,0,0,-1,0,841.89)" stroke-width="1" stroke-linecap="butt" stroke-miterlimit="10" stroke-linejoin="miter" fill="none" stroke="#0081a3" d="M847.585 248.019H338.66404V603.875H847.585Z"/>
<g inkscape:groupmode="layer" inkscape:label="MasterLayer 1">
</g>
</g>
</g>
</svg>
